# xmcd
# 
# Track frame offsets:
#     150
#     26953
#     61924
#     90420
#     132934
#     157521
#     198577
# 
# Disc length: 3125
# 
# Revision: 0
# Processed by: cddbd v1.5.2PL0 Copyright (c) Steve Scherf et al.
# Submitted via: fre:ac v1.0.17
# 
DISCID=510c3307
DTITLE=Die Bibel - CD 36 2 Makkabäer 9,1-15,39
DYEAR=0
DGENRE=
TTITLE0=01
TTITLE1=02
TTITLE2=03
TTITLE3=04
TTITLE4=05
TTITLE5=06
TTITLE6=07
EXTD=
EXTT0=
EXTT1=
EXTT2=
EXTT3=
EXTT4=
EXTT5=
EXTT6=
PLAYORDER=
